<?xml version="1.0" standalone="no"?>
<!DOCTYPE svg PUBLIC "-//W3C//DTD SVG 20010904//EN"
 "http://www.w3.org/TR/2001/REC-SVG-20010904/DTD/svg10.dtd">
<svg version="1.0" xmlns="http://www.w3.org/2000/svg"
 width="312.000000pt" height="311.000000pt" viewBox="0 0 312.000000 311.000000"
 preserveAspectRatio="xMidYMid meet">

<g transform="translate(0.000000,311.000000) scale(0.100000,-0.100000)"
fill="#000000" stroke="none">
<path d="M1841 2779 c-12 -28 -25 -69 -27 -90 -3 -22 -15 -56 -26 -76 -12 -19
-22 -50 -24 -67 -6 -91 -17 -162 -26 -173 -6 -7 -8 -23 -4 -36 3 -13 1 -39 -4
-58 -6 -19 -13 -59 -15 -89 -3 -30 -7 -62 -10 -70 -4 -11 9 -20 44 -33 153
-54 291 -204 344 -372 29 -94 29 -235 -1 -320 -34 -98 -17 -74 27 38 82 209
109 394 91 606 -17 203 -72 391 -163 554 -39 69 -156 228 -172 234 -6 2 -21
-20 -34 -48z"/>
<path d="M1275 2090 c-311 -66 -597 -245 -780 -488 -36 -48 -65 -90 -65 -93 0
-4 133 55 296 129 l296 137 25 50 c52 102 198 224 323 271 51 18 11 16 -95 -6z"/>
<path d="M1160 1130 c37 -53 198 -212 263 -259 l58 -42 59 36 c41 25 60 43 60
56 0 11 11 31 25 44 l24 25 -92 0 c-150 0 -270 43 -372 131 -49 44 -49 44 -25
9z"/>
<path d="M1840 1069 c-35 -22 -82 -45 -102 -51 -21 -6 -38 -15 -38 -19 0 -5
11 -19 25 -33 14 -14 25 -34 25 -45 0 -13 16 -29 47 -47 65 -39 158 -41 224
-5 l47 25 -76 100 c-41 56 -78 104 -81 108 -3 3 -35 -11 -71 -33z"/>
<path d="M1572 833 c-35 -21 -40 -28 -31 -40 26 -30 297 -143 345 -143 24 0
16 49 -11 73 -14 12 -26 33 -27 47 -4 37 -108 96 -146 82 -15 -5 -36 -6 -47
-1 -30 12 -37 10 -83 -18z"/>
<path d="M2043 826 c-40 -23 -53 -36 -53 -54 0 -12 -11 -33 -25 -46 -18 -16
-25 -34 -25 -58 l0 -36 75 -11 c79 -11 255 -15 255 -5 0 3 -39 58 -87 123
l-88 117 -52 -30z"/>
</g>
</svg>
