<?xml version="1.0" standalone="no"?>
<!DOCTYPE svg PUBLIC "-//W3C//DTD SVG 20010904//EN"
 "http://www.w3.org/TR/2001/REC-SVG-20010904/DTD/svg10.dtd">
<svg version="1.0" xmlns="http://www.w3.org/2000/svg"
 width="800.000000pt" height="895.000000pt" viewBox="0 0 800.000000 895.000000"
 preserveAspectRatio="xMidYMid meet">

<g transform="translate(0.000000,895.000000) scale(0.100000,-0.100000)"
fill="#000000" stroke="none">
<path d="M4555 8934 c-84 -6 -325 -33 -352 -40 -21 -6 -23 -12 -23 -80 0 -43
4 -74 10 -74 6 0 52 7 103 15 86 13 363 35 451 35 l39 0 -6 -305 -5 -305 99 0
99 0 0 302 0 301 188 -6 c103 -4 232 -13 287 -22 55 -8 106 -15 113 -15 8 0
12 21 12 74 0 87 15 78 -172 101 -119 15 -700 28 -843 19z"/>
<path d="M6195 8933 c-69 -5 -285 -33 -312 -40 -22 -5 -23 -9 -23 -130 l0
-125 -125 4 -125 3 0 -86 0 -86 130 5 129 5 -6 -152 -6 -151 101 0 102 0 0
152 0 151 208 -7 c361 -12 613 -42 730 -88 l57 -23 3 -93 3 -92 99 0 100 0 0
119 0 120 -30 21 c-16 11 -53 31 -82 44 -52 23 -52 23 -23 29 17 3 54 9 83 12
l52 7 0 178 c0 161 -2 179 -17 184 -10 3 -74 13 -143 22 -93 12 -219 17 -490
19 -201 1 -387 1 -415 -2z m828 -159 l37 -6 0 -53 c0 -42 -4 -55 -17 -59 -30
-9 -514 -26 -755 -26 l-228 0 0 69 0 69 73 6 c39 4 90 8 112 10 59 6 734 -3
778 -10z"/>
<path d="M990 6327 c0 -1725 1 -1754 76 -2187 249 -1444 1188 -2864 2584
-3906 96 -72 209 -154 251 -182 l75 -52 148 0 147 0 62 42 c385 260 852 651
1160 971 998 1037 1580 2177 1731 3392 34 268 36 394 36 1922 l0 1533 -3135 0
-3135 0 0 -1533z m2353 246 c76 -637 138 -1164 137 -1170 0 -10 -43 -13 -179
-13 l-180 0 -10 53 c-40 202 -421 2258 -421 2273 0 12 44 14 258 14 l257 0
138 -1157z m2217 1143 c0 -12 -392 -2131 -421 -2273 l-10 -53 -180 0 -179 0 0
24 c0 13 61 531 135 1152 74 621 135 1137 135 1147 0 16 19 17 260 17 216 0
260 -2 260 -14z m-4002 -1171 c243 -616 444 -1128 447 -1137 7 -17 -18 -18
-444 -18 l-451 0 0 1142 c0 628 2 1139 4 1137 2 -2 202 -508 444 -1124z m5582
-15 l0 -1140 -451 0 c-426 0 -451 1 -444 18 83 217 889 2262 892 2262 1 0 3
-513 3 -1140z m-13 -1537 c-5 -363 -16 -495 -63 -772 -51 -302 -141 -638 -247
-922 l-53 -144 -2638 -3 -2637 -2 -20 47 c-33 75 -145 417 -179 541 -119 444
-160 749 -167 1245 l-5 357 3007 0 3007 0 -5 -347z m-4214 -1895 c75 -182
1186 -3022 1184 -3025 -6 -5 -341 233 -472 335 -736 573 -1335 1244 -1764
1977 -84 143 -275 522 -330 653 l-30 72 703 0 c554 0 705 -3 709 -12z m860
-125 c10 -76 89 -743 177 -1483 88 -740 163 -1365 166 -1390 4 -25 4 -43 1
-40 -6 5 -567 3011 -567 3036 0 11 22 14 103 14 l104 0 16 -137z m927 124 c0
-8 -126 -690 -280 -1516 -154 -826 -280 -1507 -280 -1513 0 -6 -2 -9 -5 -6 -3
3 75 685 175 1515 99 830 180 1514 180 1521 0 9 29 12 105 12 81 0 105 -3 105
-13z m2009 -79 c-466 -1079 -1287 -2055 -2373 -2822 -99 -70 -180 -125 -183
-123 -2 3 1109 2843 1184 3025 4 9 155 12 708 12 l704 0 -40 -92z"/>
<path d="M1915 4634 c-192 -63 -408 -133 -479 -155 -70 -23 -124 -44 -120 -49
5 -4 90 -40 189 -80 99 -40 181 -74 183 -75 2 -2 -17 -28 -42 -59 -83 -102
-176 -328 -176 -428 l0 -28 86 59 c160 112 317 156 461 132 135 -23 283 -115
354 -220 18 -28 37 -51 40 -51 3 0 11 19 18 43 45 151 145 235 300 254 51 6
54 5 47 -13 -4 -10 -10 -35 -13 -54 -3 -19 -18 -49 -33 -66 -42 -49 -56 -112
-40 -194 8 -40 10 -86 6 -112 -19 -111 -5 -123 139 -123 118 1 211 29 294 90
90 67 95 115 13 145 -63 24 -102 57 -127 111 -12 28 -30 58 -39 68 -13 14 -14
22 -3 50 10 29 9 37 -15 84 -25 47 -28 65 -33 197 -3 80 -8 163 -10 185 l-5
40 105 45 c57 25 105 48 105 52 0 4 -8 9 -17 12 -10 3 -198 60 -418 127 -220
67 -404 123 -410 124 -5 2 -167 -48 -360 -111z m855 -381 l0 -67 -45 44 c-25
24 -45 47 -45 50 0 5 68 37 83 39 4 1 7 -29 7 -66z"/>
<path d="M3925 4695 c-88 -30 -301 -100 -474 -155 -172 -56 -309 -106 -305
-110 5 -5 90 -41 190 -82 l180 -73 -43 -55 c-51 -65 -113 -182 -141 -265 -22
-65 -46 -184 -39 -191 3 -3 38 19 78 48 144 103 301 155 431 144 158 -14 311
-107 414 -250 l20 -28 23 58 c58 153 146 225 291 241 59 6 72 -1 49 -24 -6 -6
-11 -27 -11 -47 0 -25 -6 -39 -18 -46 -10 -5 -28 -30 -40 -56 -21 -42 -22 -54
-15 -128 10 -103 9 -160 -5 -186 -9 -17 -6 -24 13 -44 53 -53 235 -44 363 19
71 35 144 101 144 130 0 21 -36 55 -58 55 -36 0 -108 58 -127 102 -11 24 -27
54 -36 68 -13 19 -16 38 -12 73 5 40 2 52 -16 71 -21 22 -23 38 -31 208 -4
100 -10 189 -12 197 -2 9 31 29 97 58 55 25 103 48 107 52 6 5 -752 244 -847
267 -5 1 -82 -22 -170 -51z m674 -485 c1 -23 -2 -21 -44 20 -25 24 -45 47 -45
51 0 4 17 14 38 22 l37 15 7 -42 c3 -22 7 -52 7 -66z"/>
<path d="M5510 4609 c-234 -76 -449 -146 -478 -155 -30 -9 -50 -19 -45 -23 4
-4 90 -41 191 -81 100 -40 182 -76 182 -80 0 -4 -7 -14 -16 -21 -22 -18 -86
-114 -118 -176 -36 -72 -73 -188 -82 -259 -7 -57 -7 -58 14 -44 166 120 260
165 379 182 162 23 328 -36 454 -162 37 -37 70 -77 74 -89 10 -33 19 -25 43
42 49 137 152 219 291 234 l63 6 -16 -31 c-9 -17 -16 -40 -16 -52 0 -12 -13
-38 -29 -58 -43 -55 -55 -110 -40 -191 11 -64 9 -122 -6 -167 -15 -48 67 -80
180 -70 140 11 271 71 322 145 30 44 18 65 -55 97 -73 32 -90 48 -117 109 -13
28 -30 57 -39 64 -11 10 -13 18 -6 31 17 31 11 76 -12 105 -19 25 -23 46 -30
174 -4 80 -9 169 -12 196 l-4 50 105 45 c58 25 106 47 108 50 2 4 -760 242
-850 266 -5 1 -201 -60 -435 -137z m930 -356 l0 -67 -45 44 c-25 24 -45 47
-45 50 0 5 68 37 83 39 4 1 7 -29 7 -66z"/>
</g>
</svg>
